<svg width="11" height="14" viewBox="0 0 11 14" fill="none" xmlns="http://www.w3.org/2000/svg">
<path d="M0.333313 2.43333V11.7667C0.333313 11.9435 0.403551 12.113 0.528575 12.2381C0.6536 12.3631 0.823169 12.4333 0.99998 12.4333H2.99998V11.1H1.66665V3.1H2.99998V1.76667H0.99998C0.823169 1.76667 0.6536 1.8369 0.528575 1.96193C0.403551 2.08695 0.333313 2.25652 0.333313 2.43333ZM9.82798 1.78667L4.49465 0.453333C4.39639 0.428827 4.29384 0.427026 4.19479 0.448068C4.09574 0.469109 4.00278 0.51244 3.92297 0.57477C3.84316 0.637101 3.7786 0.716794 3.73418 0.807801C3.68977 0.898807 3.66667 0.998735 3.66665 1.1V13.1C3.66641 13.2014 3.68934 13.3014 3.73367 13.3926C3.77801 13.4837 3.84257 13.5635 3.92245 13.6259C4.00233 13.6883 4.0954 13.7316 4.19457 13.7525C4.29373 13.7734 4.39637 13.7714 4.49465 13.7467L9.82798 12.4133C9.97227 12.3773 10.1004 12.2942 10.1919 12.177C10.2835 12.0598 10.3333 11.9154 10.3333 11.7667V2.43333C10.3333 2.28463 10.2835 2.1402 10.1919 2.02303C10.1004 1.90585 9.97227 1.82265 9.82798 1.78667ZM6.99998 7.22533C6.9923 7.39699 6.91871 7.55906 6.79453 7.67782C6.67034 7.79657 6.50514 7.86284 6.33331 7.86284C6.16149 7.86284 5.99628 7.79657 5.8721 7.67782C5.74792 7.55906 5.67432 7.39699 5.66665 7.22533V6.974C5.66673 6.79719 5.73706 6.62765 5.86214 6.50269C5.98723 6.37773 6.15684 6.30758 6.33365 6.30767C6.51046 6.30775 6.67999 6.37808 6.80495 6.50316C6.92992 6.62825 7.00007 6.79786 6.99998 6.97467V7.22533Z" fill="#F97316"/>
</svg>
