<svg width="16" height="16" viewBox="0 0 16 16" fill="none" xmlns="http://www.w3.org/2000/svg">
<path d="M6.66667 2.99998L8 1.33331C4.318 1.33331 1.33334 4.31798 1.33334 7.99998C1.33334 11.682 4.318 14.6666 8 14.6666C11.682 14.6666 14.6667 11.682 14.6667 7.99998C14.6667 5.26665 13.0213 2.91665 10.6667 1.88798" stroke="white" stroke-linecap="round" stroke-linejoin="round"/>
<path d="M5 6.99996L6.66667 5.66663V10.3333" stroke="white" stroke-linecap="round" stroke-linejoin="round"/>
<path d="M8.33334 9.16663V6.83329C8.33334 6.52387 8.45625 6.22713 8.67504 6.00833C8.89384 5.78954 9.19058 5.66663 9.5 5.66663C9.80942 5.66663 10.1062 5.78954 10.325 6.00833C10.5438 6.22713 10.6667 6.52387 10.6667 6.83329V9.16663C10.6667 9.47605 10.5438 9.77279 10.325 9.99158C10.1062 10.2104 9.80942 10.3333 9.5 10.3333C9.19058 10.3333 8.89384 10.2104 8.67504 9.99158C8.45625 9.77279 8.33334 9.47605 8.33334 9.16663Z" stroke="white" stroke-linecap="round"/>
</svg>
