<svg width="10" height="11" viewBox="0 0 10 11" fill="none" xmlns="http://www.w3.org/2000/svg">
<path d="M8.33902 2.83112L2.20945 0.142664C2.14878 0.115949 2.08339 0.101487 2.01706 0.100114C1.95074 0.0987409 1.8848 0.110484 1.82306 0.134664C1.76137 0.158955 1.70513 0.195192 1.65758 0.241278C1.61004 0.287365 1.57213 0.342386 1.54607 0.40316L0.0406464 3.9031C-0.011776 4.02497 -0.0134714 4.16259 0.0359333 4.28571C0.0853379 4.40882 0.181797 4.50734 0.304095 4.55959L3.79516 6.05007L3.17292 7.60005H1.00361V6.10007H0V10.1H1.00361V8.60003H3.17292C3.58591 8.60003 3.95173 8.35303 4.10428 7.97104L4.71748 6.44406L6.43316 7.17655C6.55492 7.22869 6.69243 7.23071 6.81568 7.18219C6.93893 7.13367 7.03792 7.03853 7.09103 6.91756L8.59645 3.48911C8.64971 3.36782 8.65252 3.23044 8.60426 3.10709C8.556 2.98374 8.46062 2.88449 8.33902 2.83112ZM8.99739 7.28605L8.06503 6.91506L9.06764 4.4151L10 4.78559L8.99739 7.28605Z" fill="white"/>
</svg>
