<svg width="28" height="28" viewBox="0 0 28 28" fill="none" xmlns="http://www.w3.org/2000/svg">
<path d="M11.3333 20V8.00002L19.3333 14M14 0.666687C12.249 0.666687 10.5152 1.01156 8.89756 1.68163C7.27988 2.35169 5.81003 3.33382 4.57191 4.57193C2.07143 7.07241 0.666672 10.4638 0.666672 14C0.666672 17.5362 2.07143 20.9276 4.57191 23.4281C5.81003 24.6662 7.27988 25.6484 8.89756 26.3184C10.5152 26.9885 12.249 27.3334 14 27.3334C17.5362 27.3334 20.9276 25.9286 23.4281 23.4281C25.9286 20.9276 27.3333 17.5362 27.3333 14C27.3333 12.2491 26.9885 10.5152 26.3184 8.89757C25.6483 7.2799 24.6662 5.81004 23.4281 4.57193C22.19 3.33382 20.7201 2.35169 19.1024 1.68163C17.4848 1.01156 15.751 0.666687 14 0.666687Z" fill="white"/>
</svg>
