<svg width="16" height="16" viewBox="0 0 16 16" fill="none" xmlns="http://www.w3.org/2000/svg">
<path d="M8 0.833008C11.9581 0.833008 15.1669 4.04197 15.167 8C15.1668 11.958 11.958 15.166 8 15.166L7.5918 15.1553C7.18655 15.1325 6.78931 15.0758 6.4043 14.9883L6.51562 14.501L6.62598 14.0127C6.95665 14.0879 7.29837 14.1366 7.64746 14.1562L8 14.166C11.4057 14.166 14.1668 11.4057 14.167 8C14.1669 4.59425 11.4058 1.83301 8 1.83301C7.52752 1.83303 7.06704 1.88606 6.62598 1.98633L6.51562 1.49902L6.4043 1.01172C6.9176 0.895029 7.45243 0.833031 8 0.833008ZM6.62598 14.0127L6.4043 14.9883C6.13542 14.9268 5.96716 14.6587 6.02832 14.3896C6.08961 14.1208 6.35706 13.952 6.62598 14.0127ZM2.08789 11.124C2.3214 10.9771 2.63012 11.047 2.77734 11.2803C3.20892 11.9657 3.77192 12.5609 4.43066 13.0293L4.71875 13.2227L4.79883 13.2842C4.96682 13.445 5.00372 13.7076 4.875 13.9121C4.72774 14.1454 4.41906 14.2154 4.18555 14.0684C3.27576 13.4954 2.50354 12.7233 1.93066 11.8135C1.78387 11.5799 1.85442 11.2711 2.08789 11.124ZM5.5 6.14258C5.50004 5.19333 6.49786 4.48454 7.38281 5.00586H7.38379L10.5303 6.86328L10.6797 6.96582C11.329 7.48333 11.3287 8.51546 10.6797 9.0332L10.5303 9.13672L7.38379 10.9941L7.38281 10.9951C6.55266 11.484 5.6246 10.8898 5.51172 10.0322L5.5 9.85742V6.14258ZM6.875 5.86719C6.79465 5.82 6.71273 5.82543 6.63965 5.87109C6.56419 5.91831 6.50002 6.01036 6.5 6.14258V9.85742L6.51074 9.94922C6.53232 10.0333 6.58291 10.0944 6.63965 10.1299C6.71292 10.1757 6.79478 10.18 6.875 10.1328L10.0215 8.27539L10.0811 8.22754C10.1343 8.17161 10.166 8.09263 10.166 8C10.166 7.90737 10.1343 7.8284 10.0811 7.77246L10.0215 7.72461L6.875 5.86719ZM1.60938 6.02832C1.87847 6.0895 2.04721 6.35688 1.98633 6.62598C1.88606 7.06706 1.83303 7.5275 1.83301 8C1.83303 8.47236 1.88611 8.93208 1.98633 9.37305C2.04751 9.6423 1.87863 9.91047 1.60938 9.97168C1.34034 10.0325 1.07296 9.86372 1.01172 9.59473C0.895074 9.08152 0.833032 8.54746 0.833008 8C0.833026 7.45241 0.895024 6.91762 1.01172 6.4043C1.07317 6.13557 1.34049 5.96749 1.60938 6.02832ZM2.77734 4.71875C2.63021 4.95243 2.32157 5.02213 2.08789 4.875C1.85449 4.72778 1.7836 4.41911 1.93066 4.18555L2.77734 4.71875ZM4.18555 1.93066C4.41911 1.7836 4.72778 1.85448 4.875 2.08789C5.02213 2.32157 4.95243 2.63021 4.71875 2.77734C3.93541 3.2706 3.27059 3.93541 2.77734 4.71875L2.35449 4.45215L1.93066 4.18555C2.50361 3.27566 3.27567 2.50362 4.18555 1.93066ZM6.62598 1.98633C6.3569 2.04716 6.08949 1.87845 6.02832 1.60938C5.96746 1.3405 6.13559 1.0732 6.4043 1.01172L6.62598 1.98633Z" fill="white"/>
</svg>
